<svg xmlns="http://www.w3.org/2000/svg" xmlns:xlink="http://www.w3.org/1999/xlink" width="282" height="6240"><defs><radialGradient cx=".35" cy=".6" r=".36" id="i"><stop offset=".4" stop-color="#cd994c"/><stop offset="1" stop-color="#b0843f"/></radialGradient><radialGradient id="h" cx=".33" cy=".33" r=".6"><stop offset=".5" stop-color="rgba(0,0,0,0)"/><stop offset="1" stop-color="rgba(0,0,0,.12)"/></radialGradient><radialGradient id="g" cx=".4" cy=".4" r=".5"><stop offset="0" stop-color="rgba(25,149,255,0)"/><stop offset="1" stop-color="rgba(25,149,255,.2)"/></radialGradient><clipPath id="a"><path d="M0 0h282v60H0z"/></clipPath><clipPath id="n"><path d="M0 4800h20v20H0v-10h10v-4H0z"/></clipPath></defs><g clip-path="url(#a)" opacity=".1"><path d="M0 0v14l73 46 4-9 8-2-9-47 1-2zm0 27v33h52z"/><g fill="none" stroke="#000" stroke-width="2"><path d="M-3 16l108 68M-5 20l109 68m25-20L94 46 86 9l7-11m33 72L90 48 80 2l5-8m73 70l-54-34-4-18m56 56L95 29.6l-4-20 7-12M185 67l-70-44-4-19 5-10m66 77l-71-45-6-29m87 69l-73-46-2-12m11 9l85 53m25-6l-54-33-2-7m54 44l-80-50-4-11.7m119 61l-91-57-3-14m27.93.4l2 9 69 43 5 17M115 69L93 55l-6 1"/><circle r="3" cy="53" cx="117"/><circle cx="99" cy="10" r="3"/><circle r="3" cy="6" cx="118"/><circle cx="126" cy="16" r="3"/><circle r="3" cy="57" cx="83"/><circle r="3" cy="52" cx="197"/><circle cx="174" cy="38" r="3"/><circle r="3" cy="21" cx="181"/><circle cx="242" cy="60" r="3"/><circle cx="228" cy="51" r="3"/><circle cx="152" cy="3" r="3"/><circle r="3" cy="41" cx="212"/><circle cx="191" cy="5" r="3"/><circle r="3" cy="45" cx="252"/><circle r="3" cy="36" cx="238"/><circle r="3" cy="17" cx="207"/><circle cx="222" cy="26" r="3"/><circle cx="217" cy="2" r="3"/></g></g><use xlink:href="#b" transform="matrix(-1 0 0 1 20 -4)" opacity=".75"/><path d="M1.5 124.5c-.5 0-1 .5-1 1v13.3l3.3-3.3h9.7c.5 0 1-.5 1-1v-9c0-.5-.5-1-1-1z" id="b" fill="#f0f0f0" stroke="#80888a"/><g transform="translate(0 240)" fill="#e82017"><use xlink:href="#c"/></g><path d="M20 377.2l-8-16.3-2-.9-2 .9-8 16.3.3 2 1.7.8h16l1.7-.8z" fill="#e8bf0b"/><path d="M8.5 365.5v8h3v-8zm0 8v3h3v-3z" fill="#404546" stroke="#ffd20c"/><g transform="translate(0 480)" fill="#00c247"><g id="c"><circle cx="10" cy="10" r="10"/><g opacity=".2"><path d="M1 10c8-4 10 4 18 0C18.4-2 1.6-2 1 10z" fill="#fff"/><circle r="9.5" cy="10" cx="10" stroke="#000" fill="none"/></g></g><use xlink:href="#d" transform="translate(1)" fill="#fff"/></g><g transform="translate(0 720)" stroke="#c0c4c5"><use xlink:href="#e"/><path d="M2 7.5h16zm0 3h16zm0 3h16zm0 3h16zM7.5 5v14zm5 0v14z"/><path d="M2 3h16" stroke-width="4"/></g><use xlink:href="#f" transform="translate(0 840)" fill="#80888a"/><g transform="translate(0 960)" fill="#ffd20c"><use xlink:href="#c"/><use xlink:href="#d" transform="translate(1)" fill="#fff"/></g><g transform="translate(0 1080)" fill="#00c247"><use xlink:href="#c"/><g fill="#fff"><path id="f" d="M9 4v5H4v2h5v5h2v-5h5V9h-5V4z"/></g></g><g transform="translate(0 1200)" fill="#1995ff"><use xlink:href="#c"/><path d="M6 8c0-3.7 8-3.7 8 0 0 2.5-4 2.5-4 3.7V13m0 3v-2" stroke="#fff" stroke-width="2"/></g><path d="M16 1327l-6 6-6-6h4v-7h4v7z" fill="#00c247"/><path d="M0 1335v5h20v-5zm1 1h18v2H1zm4 2624v5h1v-4h10v18H6v-4H5v5h13v-20z" fill="#acb2b3"/><g transform="translate(0 1560)"><rect width="17" height="16" x="1.5" y="2.5" rx="1" ry="1" fill="#fff" stroke="#80888a"/><path d="M6 9h2zm3 0h2zm3 0h2zm3 0h2zM3 12h2zm3 0h2zm3 0h2zm6 0h2zM3 15h2zm3 0h2zm3 0h2zm3 0h2z" stroke="#dee0e1" stroke-width="2"/><path fill="#e82017" d="M12 11h2v2h-2z"/></g><path d="M0 1442v16h20v-13H10l-1-3zm5 118v3H2v3h16v-3h-3v-3h-1v3H6v-3z" fill="#80888a"/><path d="M2 1446h18v12H0z" fill="#e8bf0b"/><path d="M15.8 1802.5c-.7 0-1.5.3-1.9.9l-1 1 2.8 2.8 1-1c1-1 1.1-2.6.4-3.2a1.7 1.7 0 0 0-1.2-.5zm-3 2l-10.3 10.2v2.8h2.8l10.2-10.2z" fill="#ffd20c" stroke="#e8bf0b"/><path d="M3.5 1939.5h13v-19h-13z" fill="none" stroke="#acb2b3"/><rect width="19" height="7" rx="1" ry="1" x=".5" y="1928.5" fill="#e5e6e7" stroke="#80888a"/><path d="M1 1934.5h18v-2.5H1zm4 3.5h8v-1H5z" fill="#cdcecf"/><g transform="translate(0 2040)" fill="url(#g)" stroke="#8b9fb5" stroke-width="2"><path d="M12.2 12.2c5 6.2 5.5 7.5 6.5 6.4 1-1-.15-1.5-6.4-6.5z"/><circle cx="7.5" cy="7.5" r="6.5"/></g><circle cx="10" cy="2170" r="9.5" fill="url(#h)" stroke="#acb2b3"/><path d="M5.5 2284v12.2c0 4.3 9 4.4 9 0V2283c0-3.3-6-3.3-6 0v12c0 2.5 3 2.5 3 0v-7" stroke="#80888a" fill="none"/><g transform="translate(0 2400)"><path d="M1.5.5h17v19h-17z" fill="#fff" stroke="#80888a" id="e"/><path d="M5 5.5h10zm0 2h10zm0 2h5zm0 2h10zm0 2h6z" stroke="#c0c4c5"/></g><path d="M4 2521h12v14H4z" fill="#ce5541"/><path d="M2 2521v15h2v-15z" fill="#eb947b"/><path d="M4 2537.5h13m1.5-15.5v17.5h-15c-1 0-2-1-2-2v-15c0-.9.7-2 2-2h13v15h-13c-.7 0-2 .5-2 2" fill="none" stroke="#8b575d"/><g transform="translate(0 2640)"><path d="M10 18.86c-16 0-5-12.5 0-12.5s16 12.5 0 12.5z" fill="url(#i)" stroke="#886329"/><circle cx="10" cy="5.5" r="5" fill="#ffcbb2" stroke="#bf8c7d"/><circle cx="9" cy="6" r="3" fill="#ffe2d4"/></g><circle fill="#e65959" r="10" cy="2770" cx="10"/><path fill="#f3e100" d="M17.07 2777.07A10 10 0 0 1 10 2780v-10z"/><path fill="#4ca2d9" d="M11 1680v3c-6 1-11 7.5-11 7.5s7-4.5 11-3.5v3l5-5zm9 9.5s-7 4.5-11 3.5v-3l-5 5 5 5v-3c6-1 11-7.5 11-7.5zM20 2770a10 10 0 0 1-2.93 7.07L10 2770z"/><use xlink:href="#j" transform="translate(0 -120)"/><path d="M2 1816v2h2zm7 347v8h6v-1h-5v-7zm0 722v10h2v-10z" fill="#404546"/><g id="j" transform="translate(0 3000)"><rect ry="2" rx="2" height="20" width="20" fill="#f0f0f0"/><rect y="1.5" x="1.5" ry="1" rx="1" height="17" width="17" fill="#f4f5f5" stroke="#fff"/><path d="M5 9v2h10V9z" fill="#404546"/></g><g stroke="#497fac"><path id="k" d="M8 3125l-5 5zm-5 5h14zm0 0l5 5z" stroke-width="2" stroke-linejoin="round"/><use xlink:href="#k" transform="matrix(-1 0 0 1 20 120)"/><use xlink:href="#k" transform="rotate(90 -110 3250)"/><use xlink:href="#k" transform="matrix(0 -1 -1 0 3140 3500)"/></g><g transform="translate(0 3719)" fill="#e6bd1f"><path id="l" d="M10 .7L7.6 8H0l6.1 4.5-2.3 7.2 6.2-4.5 6.1 4.5-2.3-7.2L20 8h-7.6L10 .7z"/></g><use xlink:href="#l" transform="translate(0 3599)" fill="#dee0ef"/><g transform="translate(1 3840)" fill="#00c247"><path id="d" d="M2 10l6 6 9.8-9.8-1.4-1.4L8 13.2 3.4 8.6z"/></g><path d="M9 3964l6 6-6 6v-4H2v-4h7z" fill="#f60"/><use xlink:href="#f" transform="rotate(45 -4914.926 2049.97)" fill="#e82017"/><use xlink:href="#f" transform="rotate(45 -5059.78 2109.97)" fill="#404546"/><use xlink:href="#f" transform="rotate(45 -5204.63 2169.97)" fill="#fff"/><g transform="translate(0 4440)" fill="#00c247"><path id="m" d="M4 10l6 6v-4c4-1 6 1 6 1s0-4-6-5V4z"/></g><use xlink:href="#m" transform="matrix(-1 0 0 1 20 4560)" fill="#7fbce4"/><g id="o" transform="translate(0 4800)"><rect width="9" height="17" x="5.5" y="1.5" rx="3.75" ry="3.75" fill="none" stroke="#abb0b1" stroke-width="3"/><rect width="17" height="9" x="1.5" y="10.5" rx="1" ry="1" fill="#f3e100" stroke="#c7b134"/><path fill="#f7e867" d="M4 11h9v8H4z"/><path fill="#f9f080" d="M7 11h3v8H7z"/></g><use clip-path="url(#n)" transform="translate(0 120)" xlink:href="#o"/><use xlink:href="#d" transform="translate(1 5400)" fill="#333739"/><g transform="translate(0 5280)" fill="none" stroke="#404546"><circle cx="10" cy="10" r="9.5"/><path d="M10 9v6m0-10v2" stroke-width="2"/></g><g transform="translate(0 5640)" fill="#fff"><path d="M4.3 9C3 10.5 1 12 1 14c0 4 4 6 9 6s9-2 9-6c0-2-2-3.5-3.3-5-1.7 3.7-8.3 5-11.4 0z"/><circle cx="10" cy="5" r="5"/></g><g transform="translate(0 5040)" fill="#80888a"><circle cx="10" cy="3" r="2"/><circle cx="10" cy="10" r="2"/><circle cx="10" cy="17" r="2"/></g><use transform="rotate(135 -412.5 4150)" xlink:href="#k" stroke="#80888a"/><path d="M4 249h12v2H4zM3 1815v2h2a2 2 0 0 0-2-2zM6 5883v14l11-7zm-5 121v2h18v-2zm0 5v2h18v-2zm0 5v2h18v-2z" fill="#fff"/><path d="M1.8 6125.8l3.2 3 6.7-8.2m-3.7 6.9l1.5 1.3 6.7-8.2" fill="none" stroke="#00c247" stroke-width="1.4"/><path d="M.5 4683.5h19v13H.5z" fill="rgba(0,0,0,.3)" stroke="#abb0b1"/><path d="M1 4684v2.8l9 5 9-5v-2.8zm0 4v8h18v-8l-9 5z" fill="#f2f2f2"/><path d="M1 4688v6l5.5-3zm12.5 3l5.5 3v-6z" opacity=".06"/><path d="M1 610h5.7l-2.9 2.3M10 619v-5.7l2.3 2.9M19 610h-5.7l2.9-2.3M10 601v5.7l-2.3-2.9" stroke="#404546" stroke-width="4" stroke-linejoin="bevel" id="p"/><use xlink:href="#p" transform="rotate(45 10 610)"/></svg>